<?xml version="1.0" encoding="UTF-8"?>
<svg version="1.1" xmlns="http://www.w3.org/2000/svg" width="61" height="58">
<path d="M0 0 C20.13 0 40.26 0 61 0 C61 19.14 61 38.28 61 58 C40.87 58 20.74 58 0 58 C0 38.86 0 19.72 0 0 Z " fill="#08032C" transform="translate(0,0)"/>
<path d="M0 0 C2.475 0.495 2.475 0.495 5 1 C4.34 4.96 3.68 8.92 3 13 C5.97 10.03 8.94 7.06 12 4 C13.32 5.32 14.64 6.64 16 8 C13.36 10.64 10.72 13.28 8 16 C9.19625 15.67 10.3925 15.34 11.625 15 C15.15791497 14.10734177 18.34079109 13.81703955 22 14 C21.67 15.65 21.34 17.3 21 19 C17.38026598 20.31626692 14.90432869 21 11 21 C11 21.66 11 22.32 11 23 C12.03060547 23.19916016 12.03060547 23.19916016 13.08203125 23.40234375 C13.98308594 23.57894531 14.88414063 23.75554688 15.8125 23.9375 C16.70582031 24.11152344 17.59914062 24.28554688 18.51953125 24.46484375 C21 25 21 25 24 26 C23.505 28.475 23.505 28.475 23 31 C17.06 30.01 17.06 30.01 11 29 C13.64 31.64 16.28 34.28 19 37 C18.34 38.32 17.68 39.64 17 41 C12.87629864 39.41396102 9.19148315 36.87136571 7 33 C6.90240338 30.06785799 7.23279051 27.46808769 7.765625 24.5859375 C8.031945 21.64754014 7.60876526 20.43223494 6 18 C2.56882841 15.45839141 -0.85731795 15.63011767 -5 16 C-7.51869332 16.76391002 -7.51869332 16.76391002 -9 19 C-10.08396674 23.50657039 -10.33153789 27.53782342 -9 32 C-14.10334017 33.905247 -18.46342706 35.42589023 -24 35 C-24 33.68 -24 32.36 -24 31 C-21.03 29.68 -18.06 28.36 -15 27 C-18.63 26.01 -22.26 25.02 -26 24 C-25.67 22.35 -25.34 20.7 -25 19 C-16.96428571 19.9375 -16.96428571 19.9375 -13 21 C-14.12104533 19.68412059 -15.24696965 18.37239647 -16.375 17.0625 C-17.00148438 16.33160156 -17.62796875 15.60070312 -18.2734375 14.84765625 C-19.87747714 12.91619094 -19.87747714 12.91619094 -22 12 C-21.34 10.68 -20.68 9.36 -20 8 C-15.17555258 8.8285464 -13.26418273 11.51325936 -10 15 C-10.66 10.71 -11.32 6.42 -12 2 C-10.35 1.67 -8.7 1.34 -7 1 C-6.01 4.96 -5.02 8.92 -4 13 C-2.68 8.71 -1.36 4.42 0 0 Z " fill="#EC780C" transform="translate(31,5)"/>
<path d="M0 0 C2.85746217 1.26998319 4.48137263 2.2838003 6.3125 4.8125 C7.25846855 7.82239992 7.44072275 9.85198036 7 13 C5.54349058 15.38239458 4.00576992 16.99423008 2 19 C1.34 19 0.68 19 0 19 C0 20.65 0 22.3 0 24 C-0.33 22.68 -0.66 21.36 -1 20 C-2.258125 19.896875 -3.51625 19.79375 -4.8125 19.6875 C-7.33500854 19.48073701 -8.6618835 19.25145964 -10.70703125 17.73046875 C-13.08150485 14.55254789 -13.122435 10.87030636 -13 7 C-10.29968773 0.65426617 -6.65643736 -0.57383081 0 0 Z " fill="#06022C" transform="translate(33,20)"/>
<path d="M0 0 C1.65 0 3.3 0 5 0 C4.48594831 4.96916636 3.76615118 9.29026351 2 14 C0.35 14 -1.3 14 -3 14 C-2.40380045 9.13103697 -1.43023178 4.67209049 0 0 Z " fill="#EE790C" transform="translate(27,40)"/>
<path d="M0 0 C0.99 0.33 1.98 0.66 3 1 C3.94921875 3.1796875 3.94921875 3.1796875 4.6875 5.875 C4.93886719 6.75929688 5.19023438 7.64359375 5.44921875 8.5546875 C6 11 6 11 6 14 C4.35 14.33 2.7 14.66 1 15 C0.49528803 13.23050388 -0.00360685 11.45934777 -0.5 9.6875 C-0.7784375 8.70136719 -1.056875 7.71523438 -1.34375 6.69921875 C-2 4 -2 4 -2 1 C-1.34 0.67 -0.68 0.34 0 0 Z " fill="#F17B0B" transform="translate(35,38)"/>
<path d="M0 0 C1.32 0.66 2.64 1.32 4 2 C2.59155282 5.21524305 0.89655214 7.32183868 -1.625 9.75 C-2.57246094 10.67039062 -2.57246094 10.67039062 -3.5390625 11.609375 C-4.02117188 12.06828125 -4.50328125 12.5271875 -5 13 C-6.32 12.34 -7.64 11.68 -9 11 C-7.59155282 7.78475695 -5.89655214 5.67816132 -3.375 3.25 C-2.74335938 2.63640625 -2.11171875 2.0228125 -1.4609375 1.390625 C-0.73777344 0.70226563 -0.73777344 0.70226563 0 0 Z " fill="#F57C0B" transform="translate(22,37)"/>
<path d="M0 0 C3.62613199 0.56959153 5.25517741 1.92374534 7.75 4.5625 C8.36359375 5.20316406 8.9771875 5.84382813 9.609375 6.50390625 C10.06828125 6.99761719 10.5271875 7.49132813 11 8 C10.34 9.32 9.68 10.64 9 12 C5.01117624 10.46583702 1.35216618 7.5752926 -1 4 C-0.66796875 1.8046875 -0.66796875 1.8046875 0 0 Z " fill="#F87E0A" transform="translate(39,34)"/>
</svg>
